<?xml version="1.0" encoding="utf-8"?>
<!-- Generator: Adobe Illustrator 24.1.1, SVG Export Plug-In . SVG Version: 6.00 Build 0)  -->
<svg version="1.1" id="Layer_1" xmlns="http://www.w3.org/2000/svg" xmlns:xlink="http://www.w3.org/1999/xlink" x="0px" y="0px"
	 viewBox="0 0 215.16 75.68" style="enable-background:new 0 0 215.16 75.68;" xml:space="preserve">
<style type="text/css">
	.st0{fill:#F1F2F2;}
</style>
<g>
	<g>
		<path class="st0" d="M3.78,54.39c-0.34-0.87-0.72-1.78-1.05-2.71c-0.31-0.88-0.64-1.76-0.85-2.67c-0.43-1.92-0.85-3.84-1.14-5.78
			c-0.33-2.18-0.64-4.38-0.73-6.58c-0.06-1.54,0.16-3.11,0.44-4.63c0.19-1.01,0.7-1.95,0.94-2.62c0.15-0.89,0.25-1.47,0.34-2.05
			c-0.02-0.03-0.03-0.06-0.05-0.09c0.23-0.55,0.51-1.08,0.68-1.65c0.21-0.71,0.26-1.47,0.49-2.17c0.5-1.5,1-3,1.63-4.44
			c0.42-0.94,1.08-1.78,1.61-2.67c0.53-0.89,0.95-1.87,1.59-2.66c0.79-0.97,1.74-1.82,2.67-2.67c0.86-0.79,1.74-1.57,2.69-2.27
			c1.48-1.09,2.93-2.25,4.54-3.1c2.09-1.1,4.28-2.06,6.51-2.84c2.19-0.77,4.45-1.4,6.73-1.83c2.57-0.48,5.19-0.84,7.8-0.94
			c2.1-0.08,4.21,0.32,6.31,0.49c0.56,0.04,1.13,0.01,1.41,0.01c1.7,0.82,3.17,1.48,4.59,2.21c1.41,0.72,2.79,1.52,4.19,2.28
			c0.64,0.35,1.29,0.67,1.91,1.05c0.45,0.27,0.86,0.61,1.28,0.93c1.48,1.15,3.01,2.25,4.43,3.47c1.57,1.34,3.2,2.67,4.54,4.22
			c1.27,1.46,2.59,2.94,3.01,5.02c0.4,1.94,1.25,3.79,1.75,5.72c0.61,2.37,1.22,4.77,1.55,7.19c0.31,2.25,0.34,4.55,0.32,6.82
			c-0.01,1.19-0.36,2.38-0.62,3.56c-0.23,1.03-0.59,2.04-0.84,3.07c-0.09,0.37-0.01,0.79-0.01,1.31c-0.1,0.11-0.31,0.34-0.53,0.57
			c0.06,0.01,0.13,0.03,0.19,0.04c-0.05,0.31-0.03,0.64-0.15,0.92c-0.6,1.37-1.2,2.75-1.85,4.1c-0.66,1.38-1.37,2.73-2.07,4.09
			c-0.24,0.47-0.46,0.98-0.8,1.38c-1.63,1.9-3.25,3.83-4.98,5.63c-0.94,0.98-2.07,1.79-3.18,2.59c-2.05,1.48-4.12,2.93-6.23,4.32
			c-0.86,0.57-1.86,0.92-2.79,1.39c-0.42,0.22-0.8,0.5-1.21,0.73c-0.29,0.16-0.59,0.33-0.91,0.4c-1.7,0.38-3.41,0.76-5.12,1.09
			c-0.66,0.13-1.34,0.11-2,0.19c-1.62,0.19-3.24,0.48-4.87,0.57c-0.81,0.04-1.63-0.3-2.45-0.4c-0.87-0.1-1.76-0.05-2.61-0.19
			c-1.03-0.17-2.04-0.43-3.04-0.73c-1.24-0.37-2.48-0.75-3.67-1.25c-1.35-0.57-2.65-1.25-3.95-1.92c-1.15-0.59-2.32-1.15-3.38-1.87
			c-1.58-1.08-3.21-2.15-4.58-3.47c-1.84-1.79-3.29-3.98-5.19-5.69c-1.57-1.41-2.19-3.19-2.93-5C4.1,54.71,3.94,54.58,3.78,54.39z
			 M30.62,68.12c0.32,0.06,0.66,0.13,1,0.19c1.18,0.22,2.36,0.51,3.55,0.64c0.94,0.1,1.9,0.08,2.84,0c2.06-0.18,4.15-0.27,6.16-0.71
			c1.92-0.43,3.85-1.08,5.6-1.98c2.1-1.07,4.16-2.34,5.98-3.83c1.72-1.41,3.24-3.12,4.61-4.89c1.49-1.92,2.8-3.99,4.01-6.1
			c1.24-2.18,2.41-4.44,3.33-6.76c0.76-1.91,1.56-3.83,1.73-5.99c0.16-2,0.06-3.9-0.59-5.79c-0.2-0.59-0.5-1.18-0.53-1.79
			c-0.16-2.54-0.63-4.95-1.98-7.17c-1.08-1.77-1.93-3.68-3.05-5.42c-1.02-1.58-2.2-3.08-3.44-4.5c-0.79-0.91-1.85-1.58-2.75-2.4
			c-1.91-1.73-4.12-2.94-6.5-3.88c-0.32-0.13-0.61-0.34-0.92-0.51c-0.9-0.49-1.75-1.14-2.71-1.43c-1.48-0.44-3.02-0.7-4.56-0.93
			c-1.42-0.21-2.85-0.32-4.29-0.36c-1.22-0.04-2.44,0.05-3.66,0.14c-1.23,0.09-2.49,0.14-3.68,0.43C29.38,5.44,28,5.97,26.64,6.52
			c-1.78,0.72-3.61,1.39-5.26,2.36c-1.75,1.02-3.34,2.32-4.95,3.56c-2.4,1.84-4.38,4.07-5.8,6.76c-0.85,1.6-1.84,3.16-2.44,4.85
			c-0.79,2.19-1.78,4.33-1.9,6.75c-0.08,1.73-0.64,3.44-0.8,5.17c-0.11,1.2,0.17,2.43,0.16,3.65c-0.01,2.75,0.63,5.35,1.78,7.81
			c0.91,1.95,1.93,3.86,3.04,5.71c0.64,1.08,1.52,2.02,2.33,2.99c0.61,0.73,1.27,1.41,1.91,2.11c0.28,0.31,0.58,0.6,0.88,0.9
			c0.32,0.32,0.64,0.63,0.96,0.95c0.32,0.32,0.65,0.65,0.97,0.97C21.17,64.72,25.68,66.77,30.62,68.12z"/>
		<path class="st0" d="M38.22,64.12c-0.52-0.25-1.52-0.59-2.33-1.19c-0.74-0.54-1.56-1.26-1.83-2.07c-0.35-1.05-0.28-2.28-0.23-3.43
			c0.08-1.58,0.32-3.14,0.48-4.71c0.19-1.85,0.33-3.7,0.56-5.54c0.1-0.8,0.79-1.14,1.46-1.03c1.79,0.28,3.16-0.63,4.59-1.4
			c0.48-0.26,0.9-0.7,1.4-0.85c0.39-0.12,1.03-0.09,1.31,0.15c1.83,1.61,3.66,3.23,5.36,4.97c1.28,1.31,2.38,2.79,3.54,4.22
			c0.61,0.75,1.29,1.47,1.72,2.31c0.21,0.41,0.08,1.26-0.23,1.61c-2.08,2.35-4.63,4.03-7.53,5.29
			C43.99,63.54,41.38,63.84,38.22,64.12z"/>
		<path class="st0" d="M45.52,39.96c0.32-1.49,0.64-2.98,1.02-4.74c0.99-0.43,2.14-1.09,3.38-1.44c2.87-0.8,5.76-1.56,8.68-2.11
			c1.28-0.24,2.74-0.13,3.98,0.26c1.59,0.5,2.43,2.49,2.23,4.25c-0.29,2.48-0.49,4.97-0.87,7.43c-0.14,0.9-0.66,1.75-1.04,2.61
			c-0.29,0.66-0.77,1.27-0.92,1.96c-0.44,2.03-3.51,3.52-5.29,1.73c-1.48-1.49-3.12-2.82-4.7-4.21c-1.09-0.95-2.31-1.78-3.31-2.82
			c-0.98-1.02-1.74-2.24-2.6-3.37C45.9,39.67,45.71,39.81,45.52,39.96z"/>
		<path class="st0" d="M46.01,30c-0.42,0.1-0.86,0.33-1.27,0.28c-0.5-0.06-1-0.28-1.44-0.54c-0.42-0.24-0.72-0.67-1.13-0.93
			c-1.05-0.66-1.23-1.71-1.24-2.78c-0.01-1.54,0.03-3.08,0.16-4.62c0.08-0.98,0.37-1.94,0.55-2.92c0.16-0.85,0.27-1.71,0.46-2.55
			c0.23-0.98,0.53-1.95,0.81-2.92c0.11-0.39,0.13-0.88,0.38-1.16c1.23-1.42,3.47-1.92,5.31-0.99c1.6,0.81,3.1,1.83,4.55,2.89
			c1.6,1.16,3.25,2.32,4.6,3.74c1.29,1.34,2.28,2.98,3.29,4.56c0.47,0.74,0.69,1.64,0.97,2.48c0.25,0.73-0.2,1.12-0.81,1.32
			c-1.34,0.43-2.71,0.79-4.06,1.23c-1.94,0.63-3.86,1.38-5.82,1.95c-1.72,0.5-3.5,0.83-5.25,1.24C46.06,30.17,46.03,30.09,46.01,30z
			 M53.8,21.09c-0.04-0.56,0.09-1.27-0.18-1.75c-0.6-1.07-1.23-2.22-2.15-2.97c-1.21-0.98-2.46-0.73-3.56,0.58
			c-1.09,1.3-2.02,2.72-0.81,4.49c0.84,1.22,3.16,1.88,4.26,1.68C52.6,22.9,53.25,22.15,53.8,21.09z"/>
		<path class="st0" d="M37.65,13.15c0,2.25,0.12,4.16-0.03,6.04c-0.17,2.14-0.56,4.26-0.91,6.38c-0.04,0.25-0.39,0.63-0.61,0.64
			c-2.17,0.1-4.06,0.87-5.78,2.18c-0.22,0.17-0.78,0.18-1.01,0.01c-1.46-1.04-2.85-2.18-4.31-3.23c-1.04-0.75-2.16-1.38-3.21-2.12
			c-0.84-0.58-1.79-1.12-2.35-1.92c-0.31-0.45-0.06-1.43,0.17-2.1c0.51-1.48,1.48-2.62,2.84-3.47c1.47-0.92,2.78-2.13,4.32-2.88
			c2.02-0.98,4.15-1.95,6.5-1.63c1.03,0.14,2.01,0.64,3.01,1c0.28,0.1,0.57,0.23,0.79,0.43C37.35,12.72,37.57,13.06,37.65,13.15z"/>
		<path class="st0" d="M26.76,31.71c0,1.36,0,2.75,0,4.17c-1.38,0.54-2.69,1.14-4.06,1.57c-2.38,0.76-4.79,1.44-7.21,2.08
			c-0.71,0.19-1.43,0.1-2.15,0.58c-0.84,0.56-1.83-0.62-2.1-1.95c-0.69-3.39,0.46-6.45,1.47-9.54c0.29-0.9,0.78-1.75,1.29-2.56
			c0.85-1.36,3.82-1.56,4.99-0.46c0.59,0.56,1.39,0.89,2.03,1.4c1.31,1.06,2.58,2.19,3.88,3.27C25.47,30.75,26.07,31.18,26.76,31.71
			z"/>
		<path class="st0" d="M35.8,33.27c1.35-0.15,2.26,0.47,3,1.48c0.67,0.9,0.62,2.86-0.1,3.7c-0.44,0.52-0.81,1.14-1.34,1.52
			c-0.3,0.21-0.91,0.12-1.33-0.02c-0.66-0.21-1.47-0.42-1.86-0.91c-0.9-1.14-1.49-2.51-1.4-4.02c0.02-0.39,0.36-0.93,0.7-1.08
			C34.2,33.6,35.02,33.48,35.8,33.27z"/>
	</g>
	<g>
		<g>
			<path class="st0" d="M92.64,5.67H90.3V1.67h10.39c7.88,0,13.02,4.68,13.02,12.73s-5.14,12.8-13.02,12.8h-5.61
				c-1.73,0-2.45-0.72-2.45-2.45V5.67z M98.14,23.22h2.3c5.11,0,8.38-3.06,8.38-8.81c0-5.68-3.34-8.74-8.38-8.74h-3.09v16.76
				C97.35,22.93,97.63,23.22,98.14,23.22z"/>
			<path class="st0" d="M118.02,13.54c0-0.54-0.29-0.79-0.79-0.79h-1.44V8.87h4.17c1.62,0,2.45,0.68,2.45,2.23v1.08
				c0,0.68-0.07,1.15-0.07,1.15h0.07c0.83-2.63,3.02-4.71,5.83-4.71c0.4,0,0.83,0.07,0.83,0.07v4.5c0,0-0.47-0.07-1.12-0.07
				c-1.94,0-4.17,1.11-5,3.85c-0.25,0.9-0.4,1.91-0.4,2.98v7.26h-4.53V13.54z"/>
			<path class="st0" d="M132.98,13.54c0-0.54-0.29-0.79-0.79-0.79h-1.44V8.87h4.35c1.69,0,2.41,0.76,2.41,2.45v11.26
				c0,0.5,0.29,0.79,0.79,0.79h1.44v3.85h-4.35c-1.69,0-2.41-0.72-2.41-2.45V13.54z M133.2,1.67h3.96v4.21h-3.96V1.67z"/>
			<path class="st0" d="M142.26,13.4c-0.18-0.47-0.5-0.65-1.01-0.65h-0.4V8.87h2.63c1.51,0,2.23,0.47,2.7,1.73l3.45,9.64
				c0.4,1.08,0.68,2.63,0.68,2.63h0.07c0,0,0.29-1.55,0.65-2.63l3.45-9.64c0.47-1.26,1.22-1.73,2.7-1.73h2.45v3.88h-0.43
				c-0.5,0-0.83,0.18-1.01,0.65l-5.25,13.81h-5.43L142.26,13.4z"/>
			<path class="st0" d="M163.15,13.54c0-0.54-0.29-0.79-0.79-0.79h-1.44V8.87h4.35c1.69,0,2.41,0.76,2.41,2.45v11.26
				c0,0.5,0.29,0.79,0.79,0.79h1.44v3.85h-4.35c-1.69,0-2.41-0.72-2.41-2.45V13.54z M163.37,1.67h3.96v4.21h-3.96V1.67z"/>
			<path class="st0" d="M173.76,13.54c0-0.54-0.29-0.79-0.79-0.79h-1.44V8.87h4.21c1.62,0,2.41,0.76,2.41,2.05v0.54
				c0,0.4-0.07,0.79-0.07,0.79h0.07c0.79-1.55,2.77-3.81,6.47-3.81c4.06,0,6.4,2.12,6.4,6.98v7.16c0,0.5,0.29,0.79,0.79,0.79h1.44
				v3.85h-4.35c-1.73,0-2.45-0.72-2.45-2.45v-8.42c0-2.23-0.58-3.74-2.88-3.74c-2.45,0-4.28,1.55-4.93,3.74
				c-0.25,0.76-0.36,1.58-0.36,2.45v8.42h-4.53V13.54z"/>
			<path class="st0" d="M203.18,8.44c4.24,0,5.65,2.59,5.65,2.59h0.07c0,0,0-0.22,0-0.47c0-0.83,0.58-1.69,2.01-1.69h4.24v3.88h-1.4
				c-0.47,0-0.79,0.25-0.79,0.72v12.62c0,6.29-4.89,8.67-9.67,8.67c-2.3,0-4.75-0.65-6.51-1.58l1.4-3.6c0,0,2.27,1.22,5.07,1.22
				c2.77,0,5.18-1.19,5.18-4.5v-0.86c0-0.43,0.04-0.97,0.04-0.97h-0.07c-1.08,1.55-2.66,2.37-5.11,2.37c-5.25,0-8.24-4.24-8.24-9.28
				C195.05,12.53,197.89,8.44,203.18,8.44z M208.54,17.61c0-4.17-2.09-5.29-4.57-5.29c-2.77,0-4.28,2.01-4.28,5.11
				c0,3.2,1.62,5.57,4.57,5.57C206.45,23,208.54,21.74,208.54,17.61z"/>
		</g>
		<g>
			<path class="st0" d="M103.24,31.65c3.27,0,9.67,1.37,9.67,5.72v2.84h-4.28v-1.44c0-1.87-3.06-2.73-5.29-2.73
				c-4.57,0-8.16,3.27-8.16,8.6c0,5,3.67,9.03,8.31,9.03c4.82,0,7.73-3.38,7.73-3.38l2.48,3.38c0,0-3.7,4.39-10.29,4.39
				c-7.8,0-13.13-5.86-13.13-13.41C90.3,37.26,95.84,31.65,103.24,31.65z"/>
			<path class="st0" d="M117.7,43.95c0-0.54-0.29-0.79-0.79-0.79h-1.44v-3.88h4.17c1.62,0,2.45,0.68,2.45,2.23v1.08
				c0,0.68-0.07,1.15-0.07,1.15h0.07c0.83-2.63,3.02-4.71,5.83-4.71c0.4,0,0.83,0.07,0.83,0.07v4.5c0,0-0.47-0.07-1.11-0.07
				c-1.94,0-4.17,1.11-5,3.85c-0.25,0.9-0.4,1.91-0.4,2.99v7.26h-4.53V43.95z"/>
			<path class="st0" d="M139.31,38.84c5.25,0,8.13,3.85,8.13,8.7c0,0.54-0.11,1.69-0.11,1.69h-12.66c0.36,3.24,2.73,4.93,5.5,4.93
				c2.95,0,5.14-2.05,5.14-2.05l1.91,3.16c0,0-2.8,2.77-7.37,2.77c-6.08,0-9.85-4.39-9.85-9.6C130,42.8,133.81,38.84,139.31,38.84z
				 M142.77,46.07c-0.07-2.19-1.58-3.7-3.45-3.7c-2.34,0-3.99,1.4-4.5,3.7H142.77z"/>
			<path class="st0" d="M159.34,38.84c5.25,0,8.13,3.85,8.13,8.7c0,0.54-0.11,1.69-0.11,1.69H154.7c0.36,3.24,2.73,4.93,5.5,4.93
				c2.95,0,5.14-2.05,5.14-2.05l1.91,3.16c0,0-2.8,2.77-7.37,2.77c-6.08,0-9.85-4.39-9.85-9.6
				C150.03,42.8,153.84,38.84,159.34,38.84z M162.8,46.07c-0.07-2.19-1.58-3.7-3.45-3.7c-2.34,0-3.99,1.4-4.5,3.7H162.8z"/>
			<path class="st0" d="M171.75,36.76c0-0.54-0.29-0.79-0.79-0.79h-1.44v-3.88h4.35c1.69,0,2.45,0.4,2.45,2.09v11.58h1.37
				c0.58,0,1.33-0.11,1.73-0.68l3.74-5.79h5.07l-4.64,6.9c-0.79,1.15-1.37,1.44-1.37,1.44v0.07c0,0,0.65,0.25,1.29,1.44l2.09,3.96
				c0.29,0.54,0.65,0.68,1.51,0.68h1.22v3.85h-3.38c-1.55,0-2.16-0.25-2.88-1.58l-3.06-5.75c-0.36-0.65-1.11-0.68-1.69-0.68h-1.01
				v8.02h-4.57V36.76z"/>
		</g>
		<g>
			<path class="st0" d="M93.18,69.54c0.75,0,1.38,0.37,1.79,0.79l-0.75,0.84c-0.31-0.28-0.59-0.45-1.02-0.45
				c-0.84,0-1.5,0.73-1.5,1.94c0,1.24,0.58,1.96,1.46,1.96c0.5,0,0.85-0.21,1.15-0.54l0.75,0.82c-0.5,0.58-1.17,0.89-1.92,0.89
				c-1.56,0-2.84-1.06-2.84-3.09C90.3,70.7,91.62,69.54,93.18,69.54z"/>
			<path class="st0" d="M95.32,72.64c0-1.97,1.12-3.1,2.74-3.1c1.63,0,2.74,1.14,2.74,3.1c0,1.97-1.11,3.16-2.74,3.16
				C96.44,75.79,95.32,74.61,95.32,72.64z M99.4,72.64c0-1.2-0.52-1.92-1.34-1.92c-0.81,0-1.34,0.72-1.34,1.92
				c0,1.21,0.53,1.98,1.34,1.98C98.89,74.62,99.4,73.85,99.4,72.64z"/>
			<path class="st0" d="M105.2,75.68l-1.16-2.17h-0.74v2.17h-1.37v-6.03h2.17c1.28,0,2.33,0.44,2.33,1.88
				c0,0.89-0.43,1.45-1.07,1.74l1.36,2.42H105.2z M103.3,72.42h0.69c0.71,0,1.1-0.31,1.1-0.9s-0.39-0.8-1.1-0.8h-0.69V72.42z"/>
			<path class="st0" d="M107.33,72.64c0-1.97,1.12-3.1,2.74-3.1c1.63,0,2.74,1.14,2.74,3.1c0,1.97-1.11,3.16-2.74,3.16
				C108.45,75.79,107.33,74.61,107.33,72.64z M111.41,72.64c0-1.2-0.52-1.92-1.34-1.92c-0.81,0-1.34,0.72-1.34,1.92
				c0,1.21,0.53,1.98,1.34,1.98C110.9,74.62,111.41,73.85,111.41,72.64z"/>
			<path class="st0" d="M113.94,69.65h1.44l1.01,2.71l0.36,1.05h0.04l0.36-1.05l0.98-2.71h1.44v6.03h-1.28v-2.21
				c0-0.59,0.11-1.47,0.18-2.05h-0.04l-0.49,1.4l-0.93,2.34h-0.55l-0.93-2.34l-0.48-1.4h-0.04c0.06,0.58,0.18,1.46,0.18,2.05v2.21
				h-1.26V69.65z"/>
			<path class="st0" d="M123.82,74.25h-1.85l-0.37,1.43h-1.39l1.9-6.03h1.63l1.9,6.03h-1.44L123.82,74.25z M123.55,73.18l-0.15-0.56
				c-0.17-0.6-0.32-1.31-0.49-1.94h-0.04c-0.14,0.64-0.31,1.34-0.47,1.94l-0.15,0.56H123.55z"/>
			<path class="st0" d="M126.27,69.65h1.4l1.57,3l0.6,1.33h0.04c-0.06-0.64-0.18-1.49-0.18-2.2v-2.13h1.3v6.03h-1.4l-1.57-3.01
				l-0.59-1.31h-0.04c0.06,0.67,0.18,1.47,0.18,2.18v2.14h-1.3V69.65z"/>
			<path class="st0" d="M132.41,69.65h1.7c1.85,0,3.04,0.92,3.04,2.99s-1.18,3.04-2.95,3.04h-1.79V69.65z M134.04,74.58
				c1.02,0,1.71-0.5,1.71-1.94c0-1.44-0.69-1.89-1.71-1.89h-0.26v3.83H134.04z"/>
			<path class="st0" d="M138.28,69.65h3.78v1.15h-2.42v1.21h2.05v1.14h-2.05v1.39h2.51v1.15h-3.88V69.65z"/>
			<path class="st0" d="M143.33,69.65h1.37v4.89h2.38v1.15h-3.75V69.65z"/>
			<path class="st0" d="M149.73,72.86H152v0.96h-2.28V72.86z"/>
			<path class="st0" d="M155.03,69.65h1.4l1.57,3l0.6,1.33h0.04c-0.06-0.64-0.18-1.49-0.18-2.2v-2.13h1.3v6.03h-1.4l-1.57-3.01
				l-0.59-1.31h-0.04c0.06,0.67,0.18,1.47,0.18,2.18v2.14h-1.3V69.65z"/>
			<path class="st0" d="M161.17,69.65h3.78v1.15h-2.42v1.21h2.05v1.14h-2.05v1.39h2.51v1.15h-3.88V69.65z"/>
			<path class="st0" d="M165.64,69.65h1.4l0.42,2.82c0.08,0.63,0.17,1.27,0.25,1.91h0.04c0.11-0.64,0.23-1.28,0.35-1.91l0.65-2.82
				h1.16l0.66,2.82c0.12,0.61,0.24,1.26,0.36,1.91h0.04c0.07-0.65,0.16-1.29,0.24-1.91l0.42-2.82h1.3l-1.07,6.03h-1.71l-0.59-2.74
				c-0.09-0.46-0.18-0.95-0.24-1.4h-0.04c-0.07,0.44-0.15,0.93-0.24,1.4l-0.57,2.74h-1.68L165.64,69.65z"/>
			<path class="st0" d="M175.28,74.86l2.67-4.06h-2.41v-1.15h4.1v0.82l-2.67,4.06h2.68v1.15h-4.37V74.86z"/>
			<path class="st0" d="M180.66,69.65h3.78v1.15h-2.42v1.21h2.05v1.14h-2.05v1.39h2.51v1.15h-3.88V69.65z"/>
			<path class="st0" d="M188.55,74.25h-1.85l-0.37,1.43h-1.39l1.9-6.03h1.63l1.9,6.03h-1.44L188.55,74.25z M188.28,73.18l-0.15-0.56
				c-0.17-0.6-0.32-1.31-0.49-1.94h-0.04c-0.14,0.64-0.31,1.34-0.47,1.94l-0.15,0.56H188.28z"/>
			<path class="st0" d="M191,69.65h1.37v4.89h2.38v1.15H191V69.65z"/>
			<path class="st0" d="M198.56,74.25h-1.85l-0.37,1.43h-1.39l1.9-6.03h1.63l1.9,6.03h-1.44L198.56,74.25z M198.28,73.18l-0.15-0.56
				c-0.17-0.6-0.32-1.31-0.49-1.94h-0.04c-0.14,0.64-0.31,1.34-0.47,1.94l-0.15,0.56H198.28z"/>
			<path class="st0" d="M201,69.65h1.4l1.57,3l0.6,1.33h0.04c-0.06-0.64-0.18-1.49-0.18-2.2v-2.13h1.3v6.03h-1.4l-1.57-3.01
				l-0.59-1.31h-0.04c0.06,0.67,0.18,1.47,0.18,2.18v2.14H201V69.65z"/>
			<path class="st0" d="M207.15,69.65h1.7c1.85,0,3.04,0.92,3.04,2.99s-1.18,3.04-2.95,3.04h-1.79V69.65z M208.77,74.58
				c1.02,0,1.71-0.5,1.71-1.94c0-1.44-0.69-1.89-1.71-1.89h-0.26v3.83H208.77z"/>
		</g>
	</g>
</g>
</svg>
