<?xml version="1.0" encoding="utf-8"?>
<!-- Generator: Adobe Illustrator 24.1.1, SVG Export Plug-In . SVG Version: 6.00 Build 0)  -->
<svg version="1.1" id="Layer_1" xmlns="http://www.w3.org/2000/svg" xmlns:xlink="http://www.w3.org/1999/xlink" x="0px" y="0px"
	 viewBox="0 0 566.93 566.93" style="enable-background:new 0 0 566.93 566.93;" xml:space="preserve">
<style type="text/css">
	.st0{fill-rule:evenodd;clip-rule:evenodd;fill:#FFFFFF;}
	.st1{fill:#FFFFFF;}
	.st2{fill-rule:evenodd;clip-rule:evenodd;fill:url(#SVGID_1_);}
	.st3{fill:#E4E4E4;}
	.st4{fill:#FFCC04;}
	.st5{fill-rule:evenodd;clip-rule:evenodd;fill:#4B6F34;}
	.st6{fill:#C15E28;}
	.st7{fill:url(#SVGID_2_);}
	.st8{fill-rule:evenodd;clip-rule:evenodd;fill:url(#SVGID_3_);}
	.st9{fill-rule:evenodd;clip-rule:evenodd;fill:url(#SVGID_4_);}
	.st10{fill-rule:evenodd;clip-rule:evenodd;fill:url(#SVGID_5_);}
	.st11{fill-rule:evenodd;clip-rule:evenodd;fill:url(#SVGID_6_);}
	.st12{fill-rule:evenodd;clip-rule:evenodd;fill:url(#SVGID_7_);}
	.st13{fill-rule:evenodd;clip-rule:evenodd;fill:url(#SVGID_8_);}
	.st14{fill-rule:evenodd;clip-rule:evenodd;fill:url(#SVGID_9_);}
	.st15{fill-rule:evenodd;clip-rule:evenodd;fill:url(#SVGID_10_);}
	.st16{fill-rule:evenodd;clip-rule:evenodd;fill:url(#SVGID_11_);}
	.st17{fill-rule:evenodd;clip-rule:evenodd;fill:url(#SVGID_12_);}
	.st18{fill-rule:evenodd;clip-rule:evenodd;fill:url(#SVGID_13_);}
	.st19{fill-rule:evenodd;clip-rule:evenodd;fill:url(#SVGID_14_);}
	.st20{fill-rule:evenodd;clip-rule:evenodd;fill:url(#SVGID_15_);}
	.st21{fill-rule:evenodd;clip-rule:evenodd;fill:url(#SVGID_16_);}
	.st22{fill-rule:evenodd;clip-rule:evenodd;fill:url(#SVGID_17_);}
	.st23{fill-rule:evenodd;clip-rule:evenodd;fill:url(#SVGID_18_);}
	.st24{fill-rule:evenodd;clip-rule:evenodd;fill:url(#SVGID_19_);}
	.st25{fill-rule:evenodd;clip-rule:evenodd;fill:#981E20;}
	.st26{fill-rule:evenodd;clip-rule:evenodd;fill:#675E5B;}
	.st27{fill:#685E5B;}
	.st28{clip-path:url(#SVGID_21_);}
	.st29{clip-path:url(#SVGID_23_);}
	.st30{fill-rule:evenodd;clip-rule:evenodd;fill:#685E5B;}
	.st31{fill:#586667;}
	.st32{fill:#FDCD31;}
	.st33{clip-path:url(#SVGID_25_);}
	.st34{clip-path:url(#SVGID_27_);}
	.st35{fill:url(#SVGID_28_);}
	.st36{fill:url(#SVGID_29_);}
	.st37{fill:url(#SVGID_30_);}
	.st38{fill:url(#SVGID_31_);}
	.st39{fill:url(#SVGID_32_);}
	.st40{fill:url(#SVGID_33_);}
	.st41{fill:url(#SVGID_34_);}
	.st42{fill:url(#SVGID_35_);}
	.st43{fill:url(#SVGID_36_);}
	.st44{fill:url(#SVGID_37_);}
	.st45{fill:url(#SVGID_38_);}
	.st46{fill:url(#SVGID_39_);}
	.st47{fill:#0D301A;}
	.st48{fill-rule:evenodd;clip-rule:evenodd;fill:#0D301A;}
	.st49{fill-rule:evenodd;clip-rule:evenodd;fill:#11301C;}
	.st50{fill:url(#SVGID_40_);}
	.st51{fill-rule:evenodd;clip-rule:evenodd;fill:url(#SVGID_41_);}
</style>
<g>
	<g>
		<path class="st0" d="M516.57,298.93l-16.49-25.72l-14.44-99.7l-59.3-29.99l-0.75,0.01c-1.94-6.76-7.49-16.02-9.47-19.35
			c7.84,2.69,18.2,14.98,21.21,21.02c-0.46-6.05-2.91-15.99-9.25-22.25c4.52,2.25,17.39,13.15,20.32,19.52
			c-2.33-12.25-5.53-13.54-10.55-19.61c8.15,3.12,22.16,12.43,24.61,17.63c-2.95-10.4-12.79-16.37-18.32-19.87
			c6.08,0.28,21.05,7.03,26.46,14.49c-5.89-11.38-10.9-12.54-15.19-15.47c7.79,2.33,17.76,7.06,24.22,12.44
			c-1.77-3.71-6.04-8.85-12.45-12.03c7.5,0.85,13.62,3.62,21.43,8.35c0,0-6.84-8.96-22.69-11.67c0.09-1.27-1.21-2.91,4.3-3.18
			c-4.51-2.01-15.41-0.82-16.91,2.49c-2.6-1.94,1.77-4.29,5.48-4c-4.37-2.84-16.03-0.4-16.8,3.94c-2.02-1.17-0.24-3.84,4.22-5.57
			c-5.85-0.48-9,0.62-14.44,5.21c-1.14-0.95-0.04-4.14,5.51-5.43c-8.46-1.95-13.99,3.2-14.82,6.5c-3.93-0.82-0.94-5.27,2.91-6.74
			c-7.1-0.73-12.96,4.44-14.12,8.36c-2.04,0.33-3.27-3.17,0.1-6.34c0.29,0.2,0.58,0.41,0.84,0.61c-0.16-0.28-0.34-0.58-0.52-0.87
			c0.75-0.65,1.67-1.28,2.85-1.85c-1.31,0.01-2.53,0.22-3.67,0.56c-3.71-5.59-10.22-12.65-18.37-15.45
			c5.54,0.07,23.45,4.75,29.37,9.66c-8.12-11.01-11.9-10.76-19.74-14.39c9.55-0.78,27.82,1.77,32.72,5.75
			c-7.86-8.89-20.43-10.12-27.56-10.95c6.15-2.61,24.16-3.04,33.05,1.77c-11.23-8.46-16.74-7.23-22.37-8.09
			c8.82-1.4,20.92-1.45,29.86,0.81c-3.51-2.83-10.18-5.89-18.03-5.99c7.83-2.72,15.19-2.89,25.16-1.92c0,0-11.02-5.62-27.99-0.77
			c-0.52-1.3-2.58-2.31,2.74-5.19c-5.41,0.15-15.63,6.51-15.54,10.5c-3.49-0.68-0.28-5.09,3.52-6.56
			c-5.67-0.73-16.05,7.22-14.75,11.88c-2.55-0.2-2.06-3.69,1.53-7.51c-6.01,2.3-8.61,4.89-11.81,12.02c-1.58-0.4-2-4.08,2.88-7.99
			c-9.3,2.1-12.32,9.81-11.57,13.47c-4.27,1.05-3.44-4.77-0.33-8.05c-7.37,2.65-10.71,10.55-9.99,14.98
			c-2.29,1.6-6.14-3.15-0.79-9.91c-4.61,2.28-6.97,6.35-8.36,10.13c-0.92-0.71-2.16-1.35-3.61-1.92c0.67-1.48,1.61-2.88,2.94-4
			c-2.25,0.73-4.12,1.79-5.72,3.03c-5.64-1.73-12.66-2.75-15.5-3.17c6.34-3.95,20.82-4.19,26.75-2.86
			c-4.49-3.12-12.82-7.07-20.8-6.2c4.14-1.88,19.08-4.67,25.2-3.09c-9.88-5.34-12.61-3.84-19.7-3.79
			c6.82-3.92,21.29-8.41,26.32-7.16c-8.95-3.86-18.71-0.38-24.3,1.5c3.66-4.09,16.89-10.7,25.17-10.24
			c-11.3-2.36-14.97,0.48-19.45,1.81c6.06-4.12,15.04-8.39,22.47-9.84c-3.6-0.87-9.62-0.82-15.49,1.85
			c4.86-4.76,10.27-7.46,18.03-10.22c0,0-10.15-0.32-21.06,9.21c-0.84-0.78-2.73-0.81,0.22-4.81c-3.97,2.01-9.34,10.3-7.88,13.23
			c-2.83,0.71-1.99-3.68,0.32-6.1c-4.47,1.44-9.4,10.97-6.8,13.98c-1.96,0.75-2.82-2.02-1.49-6.12c-3.66,3.81-4.69,6.64-4.57,13.06
			c-1.31,0.26-2.91-2.33-0.65-6.94c-6.17,4.81-5.72,11.59-3.88,14.05c-2.81,2.28-4.22-2.34-3.06-5.87
			c-4.55,4.54-4.27,11.58-2.19,14.62c-1.14,1.99-5.67-0.19-4.05-7.09c-1.48,1.85-2.22,3.88-2.54,5.88l-3.12-4.06l-63.71,4.58
			l-39.48,5.01l-25.24-8.03l-68.84,19.51H72.53l-18.36,52.78l13.5,86.9c-7.08,1.2-13.41,0.01-13.12-12.52
			c-2.1-7.52-11.18-7.43-15.26-2.15c-4.96,6.41-8.53,16.62-9.64,26.8c-2.65,24.26-1.63,57.66,12.33,53.03
			c6.72-1.19,8.73-8.78,21.29-7.94l6.41,39.43l-9.29,24.28l13.03,27.33l-4.5,44.28l1.41,100.52l44.72,5.09l44.43,0.46l45.86-3.81
			l53.27,5.2l48.91,1.03l33.7-1.96l20.38-6.21l22.1,7.49l45.42,1.67l21.7-9.65l40.01,4.37l18-70.94l-18.66-99.3L516.57,298.93z
			 M422.74,143.56l-9.75,0.1c-2.6-5.78-7.38-11.7-10.85-14.51C408.53,129.53,417.34,137.44,422.74,143.56z M391.91,131.88
			c7.49,2.1,12.71,7.04,16.58,11.83l-9.83,0.1C396.77,139.07,394.04,134.43,391.91,131.88z M387.11,114.45
			c1.03,0.29,2.05,0.6,3.06,0.93c-2.02,2.03-3.5,4.21-4.46,5.94c-0.8-0.6-1.62-1.18-2.47-1.73
			C383.54,117.87,384.62,115.95,387.11,114.45z M397.32,118.06c0.9,0.38,1.74,0.76,2.51,1.13c-0.81,0.96-1.42,1.63-1.87,1.72
			C396.98,121.11,396.79,119.82,397.32,118.06z M409.63,110.86c-3.93,1.56-6.76,4.68-8.73,7.04c-0.66-0.86-1.44-1.74-2.32-2.64
			c1.4-2.33,3.72-4.67,6.86-5.49c-4.17-0.56-7.7,0.4-10.63,2.04c-5.03-4.25-11-8.19-13.59-9.91
			C389.15,100.96,402.53,106.44,409.63,110.86z M382.91,113.43c-2.02,0.67-3.91,1.67-5.64,2.83c-2.76-1.32-5.41-2.31-7.52-2.81
			C373.05,112.1,377.88,112.38,382.91,113.43z M371.63,121.06c-1.46,1.52-2.67,3.01-3.61,4.25c-2.59-1.88-5.12-3.41-7.08-4.31
			C364.7,120.34,368.27,120.47,371.63,121.06z M349.79,116.35c-0.97,0.78-4.39-2.41-3.35-7.03c1.35-0.17,2.67-0.27,3.96-0.3
			C349.72,112.23,349.66,115.01,349.79,116.35z M364.36,98.97c-1.43,4.04-1.79,7.67-2.65,8.31c-1.57,1.18-2.88-3.53-1.64-8.32
			C361.71,98.9,363.17,98.91,364.36,98.97z M354.52,99.39c-1.35,1.84-2.33,3.84-3.04,5.81c-0.89-0.15-1.78-0.27-2.68-0.36
			c0.68-0.82,1.48-1.66,2.5-2.5c-1.89,0.53-3.58,1.33-5.09,2.32c-2.46-0.1-4.8,0-6.7,0.26l-0.47-0.61
			C342.4,101.58,348.69,100.08,354.52,99.39z M369.62,144.12l-8.94-11.64c3.1,0.7,6.1,1.84,8.87,3.21c0.31,0.34,0.69,0.56,1.17,0.6
			c4.08,2.16,7.57,4.73,9.95,6.92c0.62-1.83,0.09-3.96-1.14-6.18c4.07,1.29,7.64,3.83,10.63,6.87L369.62,144.12z"/>
		<path class="st1" d="M432.37,566.93l-51.7-1.9l-19.33-6.55l-17.16,5.23l-36.34,2.11L257,564.69l-51.78-5.06l-45.13,3.75
			l-46.91-0.58l-59.27-6.75l-1.63-116.12l4.12-40.6l-14.1-29.57l10.24-26.75l-2.42-14.86c-1.24,0.5-2.6,0.93-4.08,1.26
			c-7.45,2.09-15.02,0.59-20.94-4.19c-14.64-11.83-14.6-42.85-11.99-66.78c1.48-13.58,6.23-26.39,13.02-35.17
			c4.69-6.06,11.83-9.72,19.27-10.16l-8.3-53.43l23.61-67.87h65.74l71.43-20.24l26.51,8.43l36.74-4.64l58.37-4.2l5.2-3.54
			l40.08-50.33l-2.23,9.49l25.79-26.79l-6.51,20l9.74-7.58l-3.08,6.27l32.33-16.35L405.38,23.3l10.28-3.3l-7.99,8.36l67.52,2.13
			l-10.61,3.78l-13.26,14.12l10.92-2.46l-2.85,2.28l39.68-1.12l-24.35,13.16l9.99,1.29l-7.38,2.85l63.49,32.35l-51.39-5.02
			l7.71,6.21l22.62,1.87l-13.71,5.3l11.43,9.21l-10.85-2.74l34.18,15.23L514,128.1l8.77,5.7l-9.72-0.77l42.1,55.17l-42.64-25.86
			l14.93,31.27l-25.11-20.94l2.35,16.21l11.55,15.66l-10.55-8.75l10.35,71.47l18.92,29.5l-27.59,79.18l18.52,98.54L503.41,563
			l-49.92-5.46L432.37,566.93z M386.75,531.96l39.15,1.44l22.28-9.9l30.1,3.29l13.54-53.37l-18.81-100.05l25.19-72.27l-14.07-21.93
			l-4.03-27.81l-21.62-47.06l1.84,24.23l-32.83-65.77l-5.05-2.55l-30.08,0.32l-4.17,12.28l-13.11-12.1l-13.6,0.14l-25.24-32.85
			l-30.76-14.09l16.75-2.95l0.47-0.57l-3.39-4.41l-6.41-0.95l-7.42,0.53l-3.79,1.28l0.96-1.07l-7.28,0.52l-5.99,2.73l2.53-2.48
			l-2.55,0.18l-42.24,4.61l1.96-0.89l-27.79,3.53l-23.98-7.63l-66.25,18.77H84.36l-13.11,37.69l15.39,99.02l-16.19,2.73
			c-9.62,1.63-17.53-0.18-23.52-5.36c-0.1-0.09-0.2-0.17-0.3-0.26c-0.18,1.02-0.33,2.07-0.44,3.15
			c-1.38,12.67-1.28,23.11-0.56,30.09c4.45-2.17,10.53-3.95,18.75-3.4l13.19,0.88l9.25,56.9l-8.34,21.8l11.97,25.1l-4.87,47.96
			l1.19,84.92l29.33,3.34l42.79,0.44l46.58-3.87l54.14,5.29l47.62,1.01l31.06-1.8l23.6-7.19L386.75,531.96z"/>
	</g>
	<g>
		<linearGradient id="SVGID_1_" gradientUnits="userSpaceOnUse" x1="29.5079" y1="297.444" x2="517.584" y2="297.444">
			<stop  offset="0" style="stop-color:#079247"/>
			<stop  offset="1" style="stop-color:#056A38"/>
		</linearGradient>
		<path class="st2" d="M517.58,299.12l-16.49-25.72l-6.35-43.84c-3.63,8.9-4.55,17.92-5.81,23.6c-5.69-8.63-1.84-28.51,2.4-37.22
			c-10.12,5.48-18.02,28.86-19.72,38.53c-4.17-7.86-1.87-29.75-1.19-36.55c-8.46,8.15-14.4,30.12-14.66,39.67
			c-3.03-8.04-5.84-22.27-1.44-34.1c-4.46,5.59-14.46,27.29-14.41,37.22c-4.34-17.12-1-20.69,1.81-31.48
			c-8.6,8.89-21.01,29.21-21.05,37.36c-2.44-15.12,6.62-28.67,11.64-36.47c-7.64,4-22.81,21.62-25.3,34.43
			c0.75-18.14,6.49-22.63,10.24-28.95c-8.61,7.65-18.58,19.69-23.64,30.46c0.05-5.82,2.45-14.98,8.79-22.89
			c-9.12,5.58-15.32,12.79-22.52,23.54c0,0,3.42-15.6,22.15-28.56c-0.87-1.58-0.19-4.47-7.42-1.51c4.59-5.28,19.3-10.27,23.2-6.91
			c2.18-4.04-4.85-4.45-9.43-1.86c3.91-6.26,20.34-10.11,23.93-4.99c1.89-2.71-1.99-5.08-8.75-4.62c7.22-4.12,11.93-4.6,21.66-1.95
			c0.9-1.9-2.43-5.34-10.32-3.67c9.7-7.56,19.87-4.26,22.91-0.51c4.55-3.4-1.94-7.33-7.77-6.92c8.68-5.18,19.29-2.05,23.13,2.29
			c3.47-0.98,1.89-8.71-9.24-8.9c11.63-5.27,23.04,3.16,26.93,4.16l-0.68-4.69c-3.08-3.01-8.74-6.12-14.66-5.04
			c4.49-2.88,9.06-3.9,13.37-3.83l-0.69-4.73c-1.71,2.67-3.45,5.54-6.01,4.25c-18.59-9.39-39.38,6.4-47.64,16.04
			c-4.19-8.79,13.14-26.11,21.93-31.47c-18.4-1.05-32,11.5-39.98,16.8c1.88-10.17,18.44-21.83,27.54-25.15
			c-11.09-3.07-32.99,8.3-40.92,14.09c2.44-8.55,19.28-22.74,24.49-27.16c-11.74,0.01-31.26,11.72-38.07,18.42
			c3.39-7.9,11.23-20.09,22.6-25.57c-7.09,0.93-29.34,9.64-36.18,16.83c8.46-14.85,13.33-15.59,22.25-20.91
			c-0.07-0.15-0.15-0.31-0.23-0.46c-2.89,0.17-6.24,0.59-9.8,1.24c1.05,0.83,2.07,1.71,3.01,2.66l-15.11,0.16
			c-8.03,2.3-15.22,5.27-18.06,8.2c3.03-4.37,6.93-7.62,11.1-10.12l-5.15-6.7c-5.53,1.35-10.7,3.29-14.39,5.89
			c13.12-12.55,20.37-11.81,27.45-13.76c-11.51-0.46-27.04,1.31-38.16,5.56c4.07-4.16,12.15-9.09,22.2-10.41
			c-10.44-2.31-19.91-1.41-32.55,1.36c0,0,13.27-8.87,35.76-5.23c0.47-1.74,2.96-3.35-4.3-6.23c6.96-0.62,21.03,5.98,21.51,11.1
			c4.37-1.4-0.41-6.57-5.51-7.87c0.32-0.08,0.68-0.12,1.03-0.16c-2.29-1.03-4.47-1.81-6.25-2.24c3.29-1.34,8.12-1.06,13.15-0.02
			c-1.66,0.55-3.23,1.33-4.7,2.23c1.87,0.17,3.92,0.73,5.95,1.57c0.62-0.99,1.56-1.95,2.94-2.78c1.03,0.29,2.05,0.6,3.06,0.93
			c-1.11,1.12-2.04,2.27-2.83,3.38c4.89,2.73,8.86,6.75,8.34,10.07c3.24-0.64,2.08-5.04-3.1-9.4c7.49,1.89,11.24,4.56,15.9,11.89
			c0.6,0.33,1.2,0.7,1.8,1.09c1.05-1.59,0.15-5.56-5.64-9.17c12.23,1.28,17.28,10.71,16.87,15.52c0.94,0.12,1.66-0.01,2.2-0.29
			c-2.48-5.72-6.08-11.75-7.6-14.3c2.78,0.95,5.87,3.12,8.84,5.78c5.07,2.57,8.51,7.14,10,11.33c1,1.45,1.81,2.78,2.37,3.9
			c-0.46-6.05-2.91-15.99-9.25-22.25c4.52,2.25,17.39,13.15,20.32,19.52c-2.33-12.25-5.53-13.54-10.55-19.61
			c8.15,3.12,22.16,12.43,24.61,17.63c-2.95-10.4-12.79-16.37-18.32-19.87c6.08,0.28,21.05,7.03,26.46,14.49
			c-5.89-11.38-10.9-12.54-15.19-15.47c7.79,2.33,17.76,7.06,24.22,12.44c-1.77-3.71-6.04-8.85-12.45-12.03
			c7.5,0.85,13.62,3.62,21.43,8.35c0,0-6.84-8.96-22.69-11.67c0.09-1.27-1.21-2.91,4.3-3.18c-4.51-2.01-15.41-0.82-16.91,2.49
			c-2.6-1.94,1.77-4.29,5.48-4c-4.37-2.84-16.03-0.4-16.8,3.94c-2.02-1.17-0.24-3.84,4.22-5.57c-5.85-0.48-9,0.62-14.44,5.21
			c-1.14-0.95-0.04-4.14,5.51-5.43c-8.46-1.95-13.99,3.2-14.82,6.5c-3.93-0.82-0.94-5.27,2.91-6.74c-7.1-0.73-12.96,4.44-14.12,8.36
			c-2.04,0.33-3.27-3.17,0.1-6.34c0.29,0.2,0.58,0.41,0.84,0.61c-0.16-0.28-0.34-0.58-0.52-0.87c0.75-0.65,1.67-1.28,2.85-1.85
			c-1.31,0.01-2.53,0.22-3.67,0.56c-3.71-5.59-10.22-12.65-18.37-15.45c5.54,0.07,23.45,4.75,29.37,9.66
			c-8.12-11.01-11.9-10.76-19.74-14.39c9.55-0.78,27.82,1.77,32.72,5.75c-7.86-8.89-20.43-10.12-27.56-10.95
			c6.15-2.61,24.16-3.04,33.05,1.77c-11.23-8.46-16.74-7.23-22.37-8.09c8.82-1.4,20.92-1.45,29.86,0.81
			c-3.51-2.83-10.18-5.89-18.03-5.99c7.83-2.72,15.19-2.89,25.16-1.92c0,0-11.02-5.62-27.99-0.77c-0.52-1.3-2.58-2.31,2.74-5.19
			c-5.41,0.15-15.63,6.51-15.54,10.5c-3.49-0.68-0.28-5.09,3.52-6.56c-5.67-0.73-16.05,7.22-14.75,11.88
			c-2.55-0.2-2.06-3.69,1.53-7.51c-6.01,2.3-8.61,4.89-11.81,12.02c-1.58-0.4-2-4.08,2.88-7.99c-9.29,2.1-12.32,9.81-11.57,13.47
			c-4.27,1.05-3.44-4.77-0.33-8.05c-7.37,2.65-10.71,10.55-9.99,14.98c-2.29,1.6-6.14-3.15-0.79-9.91
			c-4.62,2.28-6.97,6.35-8.36,10.13c-0.92-0.71-2.16-1.35-3.61-1.92c0.67-1.48,1.61-2.88,2.94-4c-2.25,0.73-4.12,1.79-5.72,3.03
			c-5.64-1.73-12.66-2.75-15.5-3.17c6.34-3.95,20.82-4.19,26.75-2.86c-4.49-3.12-12.82-7.07-20.8-6.2
			c4.14-1.88,19.08-4.67,25.2-3.09c-9.88-5.34-12.61-3.84-19.7-3.79c6.82-3.92,21.29-8.41,26.32-7.16
			c-8.95-3.86-18.71-0.38-24.3,1.5c3.66-4.09,16.89-10.7,25.17-10.24c-11.3-2.36-14.97,0.48-19.45,1.81
			c6.06-4.12,15.04-8.39,22.47-9.84c-3.6-0.87-9.62-0.82-15.49,1.85c4.86-4.76,10.27-7.46,18.03-10.22c0,0-10.15-0.32-21.06,9.21
			c-0.84-0.78-2.73-0.81,0.23-4.81c-3.97,2.01-9.34,10.3-7.88,13.23c-2.83,0.71-1.99-3.68,0.32-6.1c-4.47,1.44-9.4,10.97-6.8,13.98
			c-1.96,0.75-2.82-2.02-1.49-6.12c-3.66,3.81-4.69,6.64-4.57,13.06c-1.31,0.26-2.91-2.33-0.65-6.94
			c-6.17,4.81-5.72,11.59-3.88,14.05c-2.81,2.28-4.22-2.34-3.06-5.87c-4.55,4.54-4.27,11.58-2.19,14.62
			c-1.14,1.99-5.67-0.19-4.05-7.09c-1.48,1.85-2.22,3.88-2.54,5.88l-3.12-4.06l-63.71,4.58l-39.48,5.01l-25.24-8.03l-68.84,19.51
			H73.55l-1.8,5.18c2.6,1.52,5.04,3.61,7.16,6.48c-2.73-1.65-5.81-2.17-8.7-2.05l-1.85,5.33c5.85-0.27,13.59,0.22,19.38,6.07
			c-10.47-3.8-14.71,2.86-11.81,5.01c5.14-2.69,16.17-1.82,22.42,6.12c-5.29-2.47-12.76-1.11-9.72,3.69
			c4.18-2.42,14.86-1.87,21.22,8.66c-6.78-4.38-11.11-2.36-10.95-0.26c10.04,1,14.27,3.13,19.54,9.55
			c-6.15-2.84-10.63-0.29-9.83,2.91c5.17-3.5,19.15,4.25,20.57,11.48c-3.35-4.06-10.06-6.18-9.47-1.63
			c4.84-1.75,16.8,8.17,19.2,14.74c-5.7-5.34-6.1-2.4-7.47-1.24c12.87,18.8,10.49,34.58,10.49,34.58
			c-2.88-12.62-6.1-21.56-12.63-30.03c3.09,9.66,2.06,19.07,0.03,24.52c-0.89-11.87-5.9-26.67-11.21-36.9
			c1.24,7.25,5,13.49-0.77,30.7c2.25-12.86-5.63-34.73-11.34-41.19c1.9,9.07,5.53,24.97-2.15,38.22c2.88-7.62-1.46-31.04-6.32-42.41
			c-1.23,11.08,0.61,15.61-9.55,30.05c3.59-9.25,2-33.09-0.17-39.91c-0.11,12.62-7.81,24.91-13.51,31.33
			c3.17-9.01,5.46-31.66,0.46-42.29c-1.79,6.6-7.45,27.87-14.16,33.72c1.34-6.95,2.2-21.67-0.22-32.63l-5.21,14.97l13.5,86.9
			c-7.08,1.2-13.41,0.01-13.12-12.52c-2.1-7.52-11.18-7.43-15.26-2.15c-4.96,6.41-8.53,16.62-9.64,26.8
			c-2.65,24.26-1.63,57.66,12.33,53.03c6.72-1.19,8.73-8.78,21.29-7.94l6.41,39.43l-9.29,24.28l13.03,27.33l-4.5,44.28l1.41,100.52
			l44.72,5.09l44.43,0.46l45.86-3.81l53.27,5.2l48.91,1.03l33.7-1.96l20.38-6.21l22.1,7.49l45.42,1.67l21.7-9.65l40.01,4.37
			l18-70.94l-18.66-99.3L517.58,299.12z M398.97,121.1c-0.98,0.2-1.17-1.09-0.64-2.86c0.9,0.38,1.74,0.76,2.51,1.13
			C400.04,120.34,399.42,121.01,398.97,121.1z M410.64,111.05c-3.93,1.56-6.76,4.68-8.73,7.04c-0.66-0.86-1.44-1.74-2.32-2.64
			c1.4-2.33,3.72-4.67,6.86-5.49c-4.17-0.56-7.7,0.4-10.63,2.04c-5.03-4.25-11-8.19-13.59-9.91
			C390.17,101.16,403.55,106.63,410.64,111.05z M361.09,99.15c1.64-0.06,3.09-0.05,4.29,0.01c-1.43,4.04-1.79,7.67-2.65,8.31
			C361.15,108.66,359.84,103.94,361.09,99.15z M350.8,116.54c-0.97,0.78-4.39-2.41-3.35-7.03c1.35-0.17,2.67-0.27,3.96-0.3
			C350.74,112.43,350.68,115.2,350.8,116.54z M355.54,99.59c-1.35,1.84-2.33,3.83-3.04,5.81c-0.89-0.15-1.78-0.27-2.68-0.36
			c0.68-0.82,1.48-1.66,2.5-2.5c-1.89,0.53-3.58,1.33-5.09,2.32c-2.46-0.1-4.8,0-6.7,0.26l-0.47-0.61
			C343.42,101.77,349.71,100.27,355.54,99.59z"/>
	</g>
	<g>
		<polygon class="st3" points="462.5,229.67 462.5,229.68 462.5,229.67 		"/>
	</g>
	<g>
		<path class="st1" d="M247,227.74l-0.12-1.88c-0.18,0.43-0.36,0.86-0.53,1.28C246.57,227.29,246.78,227.48,247,227.74z"/>
		<g>
			<path class="st1" d="M339.97,239.06l-3.26-3.88l0.76,2.26C338.11,238.17,338.94,238.73,339.97,239.06z"/>
			<path class="st1" d="M319.5,238.33c0.19,0.12,0.37,0.23,0.57,0.3C320.07,238.63,319.86,238.52,319.5,238.33z"/>
			<path class="st1" d="M385.65,226.59l-7.56-3.44l-11.13-3.87l-1.1-1.95l2.4-0.21l5.57-2.35l2.04-2.23l-1.04-3.45l-14.04,1.22
				c0,0-7.07,0.06-7.62,0.1c-0.56,0.05-1.43-3.6-1.43-3.6l-1.47-1.92l-5.64-0.63l-11.14-1.82l-0.24-2.77l-4.78-5.73l-6.1-2.2
				l-3.17-1.65l-3.14,0.27l-9.07,0.6l0.09-4.61c-4.68,3.34-11.72,9.94-23.92,8.48c-5.59-3.68-20.52,5.91-23.21,17.03
				c-3.65-10.63,2.83-23.7,10.37-28.75l6.38,5.99c20.3,11.04,30.74-9.51,30.76-9.59l0-0.13l0.11-0.02c0.01-0.01,0.02-0.02,0.03-0.04
				v0.03l3.16-0.63l2.69-2.74l1.45-5.25l-0.51-2.39c0.4-3.84-4.86-9.17-6.78-11.34c3.15,0.42,7.63,2.42,8.76,5.67l1.13-2.77
				l-2.95-14.01c-2.38-19.99-33.38-29.08-46.67-8.47c-2.12,3.27-4.81,12.22-4.85,16.58l0.45-0.4c24.77-14.57,48.87-1.17,48.64-0.92
				c1.75,1.21,3.46,4.65,3.83,7.43c-5.81-8.64-33.4-14.03-49.44-1.29c-0.42-0.11-1.83,1.78-0.08,4.25
				c1.44,3.52-1.65,6.45,2.73,17.42l-4.52,0.33c-4.41,3.89-6.9,13.45-7.52,22.47l-0.87-122.07l-7.37-0.86l-0.7,122.14l6.78,0.46
				c-2.44,2.32-5.18,4.39-7.01,6.56l-0.05,4.92c-3.1-3.6-6.54-8.79-6.26-16.55c-0.59-8.4,4.34-9.85,4.36-14.09l0.06-12.43
				l-7.32-2.75l-4.9-0.38l-27.23-7.9l-0.53,0.2l-21.53-6.4l-4.09-0.02l-0.18-2.03l-17.28-10.41l-4.58,0.77l-4.09,2.22l-4.53-0.72
				l-2.6-4.24l-2.81-2.36l-1.69-2.27l-2.43-4.44l-0.8-2.72l-2.39,0.39l-1.89,3.89l2.19,5.95l-4.98-1.61l-3.34,0.4l-0.94,1.83
				l-1.69,4.06l1.61,3.58l-0.06,0.08l0.92,2.17l6.08,2.54l0.58,2.37l-5.8,1.81l-0.08,3.36l14.05-1.04l5.04,4.4l0.48,1.26l3.34,4.18
				l5.36,3.82l5.79,4.52c0,0,7.74,3.42,8.53,3.91c11.69,4.43,24.1,9.38,24.1,9.38c2.86-0.02,6.55-1.03,8.04-0.29
				c1.59,1.68,0.07,2.99,2.26,5.2c3.71,1.62,3.4-2.13,7.26-1.87c1.6,1.1-0.44,2.35,0.63,4.51l3.72,1.87
				c11.09,3.7,15.81-1.68,23.26-4.04c0,0-8.02,8.51-10.4,15.13c-0.25,5.1-5.57,8.54-5.57,8.54l-0.22,7.6l-8.71,10.23l18.37-11.9
				c4.47-3.2,6.22-6.14,8.76-5.99c-0.71,3.74-1.27,7.96-1.64,10.58c-1.33,1.17-3.07,2.76-5.56,4.56
				c-6.11,2.77-14.67,10.1-20.37,16.04c-1.06,2.65-2.12,5.3-3.18,7.96c-2.38-0.07-4.75-0.14-7.13-0.2
				c-10.52-2.49-21.03-4.98-31.55-7.47c-1.03-0.24,4.01,4.42,2.99,4.18c-1.08-0.25-8.22-5.42-9.3-5.67
				c-1.76-0.42-3.52-0.84-5.29-1.25c-8.04-1.18-13.3,4.63-20.24,4.98c-4.94,0.25-11.44,0.51-14.58,4.51
				c-1.97-4.94,3.62-6.05,1.09-9.15c-0.51-0.63,3.49,4.33,5.2,3.76c2.45-0.82,10.05-0.67,12.51-1.57c1.49-0.55,1.52-3.56,2.89-4.13
				c1.47-0.61,4.27,1.24,5.49,0.63c1.84-0.92-0.69-2.9,1.19-3.53c1.51-0.51,3.66,2.6,5.17,2.09c4.3,0.97,8.93,0.22,13.77,1.15
				c3.79,0.73,7.81,3.19,11.23,3.65c2.01,0.27,2.46-1.33,4.43-0.89c1.2,0.27,1.89,3.12,3.09,3.39c2.46,0.55,3.5-1.6,5.97-1.05
				c-0.09-2.04,1.24-1.37,1.15-3.41c-0.37-0.65-0.73-1.3-1.1-1.95c-8.16-2.66-16.31-5.32-24.47-7.99c-0.01-0.11-0.03-0.23-0.04-0.34
				c-0.33,0.01-0.65,0.03-0.98,0.01c-0.65-0.04-1.3-0.02-1.95-0.04c-6.05-0.15-6.25-1.43-12.7-0.68c-0.51,0.09-1.02,0.19-1.53,0.28
				c-2.87,0.51-7.63,2.64-7.95,2.67c-0.85,0.08-1.7,0.01-2.55,0.05c-0.8,0.04-1.63,0-2.38,0.23c-2.14,0.66-4.22,1.5-6.37,2.14
				c-2.18,0.65-9.14,3.12-10.37,3.45c-4.8,1.29-9.68,1.48-14.53,0.47c-3.04-0.64-6.06-0.62-9.11-0.49c-1.74,0.08-3.51,0.23-5.2,0.62
				c-3.54,0.81-7.02,1.82-10.54,2.7c-2.52,0.63-5.05,1.26-7.6,1.75c-2.33,0.45-4.69,0.84-7.05,1.02c-2.22,0.17-4.49,0.2-6.7-0.02
				c-3.2-0.32-6.37-0.94-9.56-1.4c-0.85-0.12-1.34-0.51-1.68-1.31c-0.34-0.76-0.77-1.58-1.4-2.06c-0.55-0.42-0.73-0.85-0.83-1.41
				c-0.29-1.58-0.56-3.17-0.84-4.76c-0.23-1.32-0.44-2.65-0.73-3.96c-0.12-0.55-0.35-1.1-0.64-1.58
				c-4.56-5.76-12.28-0.15-13.46,2.62c2.66-3.01,10.17-5.49,11.57-0.45l-0.02,3.09c-0.02,0.47-0.08,0.45-0.17,0.93
				c-0.19,1.01-0.38,2.04-0.41,3.06c-0.07,2.19-0.03,4.38-0.06,6.57c-0.02,1.82-0.5,3.51-1.29,5.16c-0.81,1.69-1.58,3.42-2.14,5.21
				c-0.64,2.04-1.08,4.16-1.54,6.26c-0.45,2.06-0.92,4.12-1.18,6.2c-0.4,3.19,0.17,6.37,0.67,9.5c0.6,3.68,0.89,7.38,1.12,11.09
				c0.1,1.7,0.28,3.39,0.3,5.09c0.03,2.04,1.01,4.6-0.5,6.27c-0.14,0.15-1.18-0.09-1.22,0.13c-0.28,1.28-0.2,1.49-1.38,1.8
				c-0.71,0.18-2.98,0.9-3.1,1.01c-6.11-3.3-6.53-18.35-8.85-24.17c0.3,1.77-0.09,2.59,0.34,2.71c1.55,25.21,6.84,23.68,7.88,24.27
				c0.49-0.2,1.91,0.43,2.25,0.46c1.57,0.11,2.92-0.39,4.13-1.32c0.86-0.65,1.64-1.4,2.51-2.04c1.47-1.09,2.87-2.38,4.51-3.11
				c1.89-0.84,3.98-1.34,6.04-1.67c1.84-0.3,3.74-0.19,5.62-0.21c1.07-0.01,2.15,0.11,3.22,0.12c1.97,0.01,3.95-0.02,5.93-0.02
				c0.58,0,1.17,0.02,1.74,0.08c3.12,0.35,6.23,0.84,9.35,1.01c1.41,0.07,2.74,0.3,4.08,0.64c1.08,0.28,2.15,0.63,3.24,0.89
				c4.04,0.99,8.07,2.06,12.28,2.15c2.74,0.07,5.34-0.55,7.91-1.32c1.88-0.57,3.67-1.43,5.5-2.16c0.87-0.35,1.78-0.63,2.6-1.08
				c2.24-1.23,4.46-2.49,6.63-3.82c4.36-2.67,8.88-5.03,13.42-7.38c4.15-5.04,6.69-15.78,4.15-25.94c6.9,9.65,0.96,23.53,0.51,25.98
				c-0.74,1.52-0.51,3.09-1.29,4.46c-0.6,1.07-1.09,2.38,0.02,2.76c1.57,0.54,3.15,1.03,4.74,1.48c0.5,0.14,1.09,0.19,1.6,0.09
				c6.86,0.92,11.52-6.62,14.54-6.59c1.56,0.77-4.86,5.86-3.05,6.46c1.81-0.7,9.5-0.05,13.84-7.13c2.73,0.43-3.64,9.45,1.2,9.9
				c22.01-0.02,17.42-18.78,26.87-17.65c4.96,7.37-17.77,17.72-8.17,18.42c12.5,2.45,13.85-18.83,15.7-17.47
				c5.61,3.59-7.07,13.26-3.52,16.03c0.08,0.12,0.17,0.25,0.25,0.37c9.71-9.38,20.93-22.58,14.59-41.98l-9.7-3.03l22.7-9.53
				c-3.2,4.43-6.47,8.58-9.37,14.38l4.88,5.11c1.19,1.71,2.11,3.47,2.82,5.25c-0.03,0.24-0.07,0.47-0.09,0.71
				c-1.73,16.06-0.08,27.24-14.97,39.65l2.11,1.5c19.64,8.42,26.63-19.77,42.06-13.18l-28.26,18.03l7.95,2.7l9.19-1.36l8.97,2.57
				l8.47,1.13l7.32-1.38l4.55-5.42l2.29-9.83l8.52-15.23c-1.54-7.6-10.69-17.64-21.5-24.58l-7.64,1.36l-2.11,2
				c-1.7,0.25-2.71,0.72-5.02-0.24l-16.83,4.74c0-0.04,0.01-0.08,0.01-0.12l4.03-10.14c0-0.01,0.01-0.02,0.01-0.03l10.06-1.93
				c-1.11,2.55,1.41,5.48,2.87,5.84c-0.6-1.78-2.03-4.4-0.51-6.48l3.93-0.71c-0.92-0.34-1.84-0.66-2.76-0.93
				c-0.56-0.17,0.47-1.46,2.34-1.75c-2.35-0.66-3.33,0.05-4.3,1.23c-2.92-0.6-6.24-0.85-9.19-0.56c0.6-1.28,1.2-2.56,1.8-3.85
				c0.53-5.63,0.48-12.87-3.92-19.44c0.52-1.89,1.12-3.76,1.82-5.69c2.2,2.57,5.33,6.72,7.99,9.93c8.96,10.81,19.5,24.27,19.5,24.27
				c20.2,3.64,21.67,11.9,27.63,16.74l-49.21-65.24c0.03-0.06,0.05-0.12,0.08-0.18l6.94,5.84l-0.1-13.92
				c2.67,7.61,4.22,7.65,5.96,13.75c0.22,5.17,3.77,9.53,7.83,14.83c10.89,14.66,11.84,22.74,27.6,43.5
				c-1.94-8.56,9.57-5.03,9.01-10.96l-5.99-6.77c-1.15-2.78,3.31-3.16,5.65-6.4l-3.45-13.33c-5.7-4.36-6.31-7.2-15.06-14.26
				c-6.11-16.64,6.16-32.46,10.53-32.81c3.62-0.28-4.75,21.11,6.54,31.99c2.62,3.16,11.37,7.88,13.68,9.1
				c-3.72-2.47-5.67-15.7,1.51-18.28c4.5,1.64-5.84,14.89,5.25,17.69c1.21-3.16-3.25-8.51,3.64-9.47
				c2.43-0.19,0.47,11.62,8.06,10.65l-0.5-1.49c-4.97-5.58,0.64-21.44,10.08-24.25c-10.7,15.45-4.74,22.13,1.34,23.26l4.3-2.19
				l2.84,2.73l8.6,7.79l1.98,1.8c1.42,0.59,3.17-0.75,2.18-2.31l-8.09-8.37l1.64-0.72l4.99,3.73l4.96,3.48l4.11,3.01
				c1.29,0.7,3.57-0.73,2.45-2.95l-3.4-2.68l-2.39-1.96l-7.82-6.65l0.24-1.03l11.58,6.71l5.08,2.72c1,0.51,2.63-0.58,2.8-2.11
				l-0.88-1.6l-7.12-4.78l-7.7-5.1l0.81-0.24l15.39,4.6l1.43-0.68C387.72,228.38,386.49,227.48,385.65,226.59z M285.25,157.75
				c0.12-1.73,1.97-1.98,2.59-2.23c6.31-0.53,11.62,1.91,13.55,2.87l-3.77,1.52c-3.99,0.56-8.17,5.14-4.85,13.46
				c-0.86-1.2-4.07-5.73-6.37-5.49C286.75,167.08,285.07,160.21,285.25,157.75z M268.87,167.67c-0.8-0.18,1.83-4.34,2.19-5.23
				c0.54-1.33-4.07-0.22-4.14-1.04c2.81-3.76,9.42-4.41,14.24-4.68c0.66,4.52-3.25,11.38-2.44,13.9c0.2,2.22,6.3,0.4,6.39,1.82
				c-2.5,1.83-2.27,3.8-2.93,4.28c-0.64,0.58,0.04,1.83,0.7,1.81c4.07,0.2,8.56-1.01,11.08-1.94c0.98,0.15,1.71,2.16,1.83,3.12
				c-0.33-0.76-1.93-2.61-2.82-1.15c-0.88,1.45-1.09,4.32-9.64,5.3c-1.45,0.96-0.59,2.21,0.9,2.24c6.83,0.15,1.89,4.78-1.41,4.13
				c-0.86-0.17-5.86,0.09-11.55-10.99C269.67,175.28,275,169.02,268.87,167.67z M119.13,267.07c-4.77,2.64-18.18,8.75-31.55,11.82
				c-2.44,0.57-4.85,1.28-7.32,1.66c-2.92,0.46-5.89,0.37-8.83,0.01c-1.82-0.22-3.64-0.41-5.46-0.61c-0.93-0.1-1.44-0.42-1.69-1.51
				c-0.26-1.16-0.62-2.43-1.79-3.19c-0.37-0.24-0.56-0.77-0.85-1.18c0.6-0.59,1.28-0.6,1.94-0.63c2.21-0.09,16.04-0.31,18.16,0.26
				c8.33,2.26,29.31,0.63,36.9-8.8c4.41-5.48,13.67-6.46,14.83-6.83C135.2,258.02,120.61,266.25,119.13,267.07z M275.15,306.25
				l3.67,1.98c-3.57,19.65-28.16,7.94-28.16,7.94L275.15,306.25z"/>
		</g>
	</g>
	<g>
		<g>
			<g>
				<g>
					<path class="st4" d="M115.49,458.99l33.38-47.29c3.03-4.19,5.65-6.7,5.65-6.7v-0.21c0,0-2.2,0.21-5.65,0.21h-18
						c-1.47,0-2.3,0.84-2.3,2.3v4.5h-12.45v-11.3c0-4.92,2.09-7.11,7.12-7.11h48.24v8.58l-33.38,47.4c-3.03,4.29-5.65,6.7-5.65,6.7
						v0.21c0,0,2.2-0.21,5.65-0.21h20.3c1.47,0,2.3-0.84,2.3-2.3v-4.5h12.35v11.3c0,5.02-2.09,7.11-7.11,7.11h-50.43V458.99z"/>
				</g>
				<g>
					<path class="st4" d="M184.33,427.91c0-1.57-0.84-2.3-2.3-2.3h-4.19v-11.3h12.66c4.92,0,7.01,2.2,7.01,7.11v32.75
						c0,1.47,0.84,2.3,2.3,2.3H204v11.2h-12.66c-4.92,0-7.01-2.09-7.01-7.11V427.91z M184.96,393.38h11.51v12.24h-11.51V393.38z"/>
				</g>
				<g>
					<path class="st4" d="M215.19,427.91c0-1.57-0.84-2.3-2.3-2.3h-4.18v-11.3h11.82c4.92,0,6.7,2.2,6.7,5.13c0,1.26,0,2.09,0,2.09
						h0.21c0,0,4.5-8.48,16.95-8.48c14.44,0,23.75,11.41,23.75,27.94c0,16.95-10.46,27.94-24.48,27.94
						c-10.57,0-15.28-7.01-15.28-7.01h-0.21c0,0,0.21,1.88,0.21,4.6v22.08h-13.18V427.91z M241.25,457.73
						c7.33,0,13.5-5.96,13.5-16.53c0-10.15-5.44-16.74-13.29-16.74c-6.91,0-13.39,5.02-13.39,16.85
						C228.06,449.57,232.46,457.73,241.25,457.73z"/>
				</g>
			</g>
			<g>
				<g>
					<path class="st4" d="M279.02,406.98c0-1.57-0.84-2.3-2.3-2.3h-4.18v-11.3h12.66c4.92,0,7.11,2.2,7.11,7.11v53.68
						c0,1.47,0.84,2.3,2.3,2.3h4.08v11.2h-12.55c-5.02,0-7.11-2.09-7.11-7.11V406.98z"/>
				</g>
				<g>
					<path class="st4" d="M310.19,427.91c0-1.57-0.84-2.3-2.3-2.3h-4.19v-11.3h12.66c4.92,0,7.01,2.2,7.01,7.11v32.75
						c0,1.47,0.84,2.3,2.3,2.3h4.18v11.2H317.2c-4.92,0-7.01-2.09-7.01-7.11V427.91z M310.82,393.38h11.51v12.24h-11.51V393.38z"/>
				</g>
				<g>
					<path class="st4" d="M341.05,427.91c0-1.57-0.84-2.3-2.3-2.3h-4.18v-11.3h12.24c4.71,0,7.01,2.2,7.01,5.96v1.57
						c0,1.15-0.21,2.3-0.21,2.3h0.21c2.3-4.5,8.06-11.09,18.84-11.09c11.82,0,18.62,6.17,18.62,20.3v20.82c0,1.47,0.84,2.3,2.3,2.3
						h4.18v11.2h-12.66c-5.02,0-7.11-2.09-7.11-7.11v-24.49c0-6.49-1.68-10.88-8.37-10.88c-7.11,0-12.45,4.5-14.34,10.88
						c-0.73,2.2-1.05,4.6-1.05,7.11v24.48h-13.18V427.91z"/>
				</g>
				<g>
					<path class="st4" d="M430.09,413.05c15.28,0,23.65,11.2,23.65,25.32c0,1.57-0.31,4.92-0.31,4.92h-36.83
						c1.05,9.42,7.95,14.34,16.01,14.34c8.58,0,14.96-5.96,14.96-5.96l5.55,9.21c0,0-8.16,8.06-21.45,8.06
						c-17.68,0-28.67-12.77-28.67-27.94C402.99,424.56,414.08,413.05,430.09,413.05z M440.14,434.08
						c-0.21-6.38-4.61-10.78-10.04-10.78c-6.8,0-11.61,4.08-13.08,10.78H440.14z"/>
				</g>
			</g>
		</g>
		<g>
			<g>
				<g>
					<path class="st1" d="M150.24,342.7c4.74,0,14.02,1.98,14.02,8.28v4.12h-6.2v-2.08c0-2.71-4.43-3.96-7.66-3.96
						c-6.62,0-11.83,4.74-11.83,12.45c0,7.24,5.31,13.08,12.04,13.08c6.98,0,11.2-4.9,11.2-4.9l3.6,4.9c0,0-5.37,6.36-14.9,6.36
						c-11.31,0-19.02-8.49-19.02-19.43C131.48,350.83,139.51,342.7,150.24,342.7z"/>
				</g>
			</g>
			<g>
				<g>
					<path class="st1" d="M183.07,353.12c8.13,0,14.59,5.78,14.59,13.91c0,8.18-6.46,13.91-14.59,13.91
						c-8.08,0-14.54-5.73-14.54-13.91C168.53,358.9,174.99,353.12,183.07,353.12z M183.07,375.31c4.32,0,7.92-3.33,7.92-8.28
						c0-4.9-3.6-8.28-7.92-8.28c-4.27,0-7.87,3.39-7.87,8.28C175.2,371.98,178.8,375.31,183.07,375.31z"/>
				</g>
			</g>
			<g>
				<g>
					<path class="st1" d="M203.65,360.52c0-0.78-0.42-1.15-1.15-1.15h-2.08v-5.63h6.04c2.34,0,3.54,0.99,3.54,3.23v1.56
						c0,0.99-0.1,1.67-0.1,1.67h0.1c1.2-3.8,4.38-6.83,8.44-6.83c0.57,0,1.2,0.1,1.2,0.1V360c0,0-0.68-0.1-1.62-0.1
						c-2.81,0-6.04,1.62-7.24,5.58c-0.36,1.3-0.57,2.76-0.57,4.32v10.53h-6.57V360.52z"/>
				</g>
			</g>
			<g>
				<g>
					<path class="st1" d="M237,353.12c8.13,0,14.59,5.78,14.59,13.91c0,8.18-6.46,13.91-14.59,13.91c-8.08,0-14.54-5.73-14.54-13.91
						C222.46,358.9,228.92,353.12,237,353.12z M237,375.31c4.32,0,7.92-3.33,7.92-8.28c0-4.9-3.6-8.28-7.92-8.28
						c-4.27,0-7.87,3.39-7.87,8.28C229.13,371.98,232.73,375.31,237,375.31z"/>
				</g>
			</g>
			<g>
				<g>
					<path class="st1" d="M257.59,360.52c0-0.78-0.42-1.15-1.15-1.15h-2.08v-5.63h6.1c2.34,0,3.49,1.09,3.49,2.97v0.78
						c0,0.57-0.05,1.15-0.05,1.15h0.1c1.25-2.61,4.43-5.52,8.6-5.52c4.01,0,6.62,1.88,7.76,5.47h0.1c1.41-2.87,4.85-5.47,9.07-5.47
						c5.52,0,8.7,3.13,8.7,10.11v10.37c0,0.73,0.42,1.15,1.15,1.15h2.03v5.58h-6.25c-2.5,0-3.54-1.04-3.54-3.54v-12.3
						c0-3.02-0.57-5.31-3.65-5.31c-3.28,0-5.63,2.76-6.36,6.1c-0.31,1.04-0.42,2.14-0.42,3.39v11.67h-6.62v-15.84
						c0-2.87-0.42-5.31-3.6-5.31c-3.33,0-5.58,2.76-6.41,6.15c-0.26,1.04-0.42,2.14-0.42,3.33v11.67h-6.57V360.52z"/>
				</g>
			</g>
			<g>
				<g>
					<path class="st1" d="M319.9,363.64h0.83v-0.21c0-3.8-1.51-5.21-4.9-5.21c-1.2,0-3.54,0.31-3.54,1.77v1.41h-6.15v-2.81
						c0-4.95,6.98-5.47,9.74-5.47c8.86,0,11.46,4.64,11.46,10.58v9.9c0,0.73,0.42,1.15,1.15,1.15h2.08v5.58h-5.94
						c-2.45,0-3.39-1.35-3.39-2.92c0-0.68,0.05-1.15,0.05-1.15h-0.1c0,0-2.03,4.69-8.02,4.69c-4.74,0-9.07-2.97-9.07-8.28
						C304.12,364.32,315.58,363.64,319.9,363.64z M314.8,375.78c3.54,0,6.04-3.75,6.04-6.98v-0.63h-1.15
						c-3.44,0-8.91,0.47-8.91,4.17C310.79,374.12,312.09,375.78,314.8,375.78z"/>
				</g>
			</g>
			<g>
				<g>
					<path class="st1" d="M335.9,360.52c0-0.78-0.42-1.15-1.15-1.15h-2.08v-5.63h6.1c2.34,0,3.49,1.09,3.49,2.97v0.78
						c0,0.57-0.1,1.15-0.1,1.15h0.1c1.15-2.24,4.01-5.52,9.38-5.52c5.89,0,9.27,3.07,9.27,10.11v10.37c0,0.73,0.42,1.15,1.15,1.15
						h2.08v5.58h-6.3c-2.5,0-3.54-1.04-3.54-3.54v-12.19c0-3.23-0.83-5.42-4.17-5.42c-3.54,0-6.2,2.24-7.14,5.42
						c-0.36,1.09-0.52,2.29-0.52,3.54v12.19h-6.57V360.52z"/>
				</g>
			</g>
			<g>
				<g>
					<path class="st1" d="M378.84,353.12c5.78,0,7.66,3.23,7.66,3.23h0.1c0,0-0.05-0.68-0.05-1.56v-4.69c0-0.78-0.42-1.15-1.15-1.15
						h-2.08v-5.63h6.3c2.45,0,3.54,1.09,3.54,3.54v26.73c0,0.73,0.42,1.15,1.15,1.15h2.03v5.58h-6.1c-2.4,0-3.28-1.15-3.28-2.71
						c0-0.57,0-0.99,0-0.99h-0.1c0,0-2.19,4.32-8.28,4.32c-7.19,0-11.83-5.68-11.83-13.91
						C366.75,358.59,371.81,353.12,378.84,353.12z M386.71,366.98c0-4.12-2.14-8.18-6.57-8.18c-3.65,0-6.67,2.97-6.67,8.23
						c0,5.05,2.66,8.34,6.57,8.34C383.48,375.37,386.71,372.87,386.71,366.98z"/>
				</g>
			</g>
			<g>
				<g>
					<path class="st1" d="M412.66,353.12c7.61,0,11.78,5.58,11.78,12.61c0,0.78-0.16,2.45-0.16,2.45h-18.34
						c0.52,4.69,3.96,7.14,7.97,7.14c4.27,0,7.45-2.97,7.45-2.97l2.76,4.59c0,0-4.06,4.01-10.68,4.01
						c-8.81,0-14.28-6.36-14.28-13.91C399.16,358.85,404.69,353.12,412.66,353.12z M417.66,363.59c-0.1-3.18-2.29-5.37-5-5.37
						c-3.39,0-5.78,2.03-6.51,5.37H417.66z"/>
				</g>
			</g>
			<g>
				<g>
					<path class="st1" d="M430.69,350.1c0-0.78-0.42-1.15-1.15-1.15h-2.08v-5.63h6.3c2.45,0,3.54,1.09,3.54,3.54v26.73
						c0,0.73,0.42,1.15,1.15,1.15h2.03v5.58h-6.25c-2.5,0-3.54-1.04-3.54-3.54V350.1z"/>
				</g>
			</g>
		</g>
		<g>
			<g>
				<g>
					<path class="st1" d="M266.72,484.21h-5.68c-0.73,0-1.15,0.42-1.15,1.15v2.24h-5.99v-5.84c0-2.45,0.83-3.33,3.33-3.33h25.79
						c2.5,0,3.33,0.89,3.33,3.33v5.84h-5.99v-2.24c0-0.73-0.42-1.15-1.15-1.15h-5.68v31.21h-6.83V484.21z"/>
				</g>
			</g>
			<g>
				<g>
					<path class="st1" d="M298.64,488.22c8.13,0,14.59,5.78,14.59,13.91c0,8.18-6.46,13.91-14.59,13.91
						c-8.08,0-14.54-5.73-14.54-13.91C284.1,494,290.56,488.22,298.64,488.22z M298.64,510.42c4.32,0,7.92-3.33,7.92-8.28
						c0-4.9-3.6-8.28-7.92-8.28c-4.27,0-7.87,3.39-7.87,8.28C290.77,507.08,294.37,510.42,298.64,510.42z"/>
				</g>
			</g>
			<g>
				<g>
					<path class="st1" d="M319.12,495.62c0-0.78-0.42-1.15-1.15-1.15h-2.08v-5.63h6.3c2.45,0,3.49,1.09,3.49,3.49v12.24
						c0,3.23,0.83,5.42,4.12,5.42c4.79,0,7.45-4.22,7.45-8.96v-12.19h6.62v19.85c0,0.73,0.42,1.15,1.15,1.15h2.08v5.58H341
						c-2.29,0-3.49-1.09-3.49-2.97v-0.73c0-0.63,0.05-1.2,0.05-1.2h-0.1c-1.25,2.76-4.59,5.52-9.17,5.52
						c-5.68,0-9.17-2.87-9.17-10.11V495.62z"/>
				</g>
			</g>
			<g>
				<g>
					<path class="st1" d="M352.47,495.62c0-0.78-0.42-1.15-1.15-1.15h-2.08v-5.63h6.04c2.34,0,3.54,0.99,3.54,3.23v1.56
						c0,0.99-0.1,1.67-0.1,1.67h0.1c1.2-3.8,4.38-6.83,8.44-6.83c0.57,0,1.2,0.1,1.2,0.1v6.51c0,0-0.68-0.1-1.62-0.1
						c-2.81,0-6.04,1.62-7.24,5.58c-0.36,1.3-0.57,2.76-0.57,4.32v10.53h-6.57V495.62z"/>
				</g>
			</g>
			<g>
				<g>
					<path class="st1" d="M374.04,506.98c0,0,3.39,3.91,7.92,3.91c2.03,0,3.6-0.83,3.6-2.61c0-3.75-14.02-3.7-14.02-12.3
						c0-5.31,4.79-7.76,10.32-7.76c3.6,0,9.33,1.2,9.33,5.52v2.76h-5.84v-1.3c0-1.25-1.88-1.88-3.33-1.88
						c-2.34,0-3.96,0.83-3.96,2.4c0,4.17,14.12,3.33,14.12,12.19c0,5-4.43,8.13-10.21,8.13c-7.29,0-11.05-4.74-11.05-4.74
						L374.04,506.98z"/>
				</g>
			</g>
		</g>
	</g>
</g>
</svg>
